<?xml version="1.0" standalone="no"?>
<!DOCTYPE svg PUBLIC "-//W3C//DTD SVG 20010904//EN"
 "http://www.w3.org/TR/2001/REC-SVG-20010904/DTD/svg10.dtd">
<svg version="1.0" xmlns="http://www.w3.org/2000/svg"
 width="1000.000000pt" height="1000.000000pt" viewBox="0 0 1000.000000 1000.000000"
 preserveAspectRatio="xMidYMid meet">

<g transform="translate(0.000000,1000.000000) scale(0.100000,-0.100000)"
fill="#000000" stroke="none">
<path d="M0 5000 l0 -5000 5000 0 5000 0 0 5000 0 5000 -5000 0 -5000 0 0
-5000z m4310 2034 c565 -82 1088 -414 1407 -894 82 -122 214 -370 198 -370 -2
0 -29 48 -60 108 -84 162 -174 281 -325 432 -249 249 -520 407 -840 489 -192
49 -250 56 -475 56 -225 0 -283 -7 -475 -56 -595 -153 -1095 -620 -1290 -1206
-261 -784 16 -1631 692 -2116 106 -76 354 -203 473 -242 210 -68 379 -95 600
-95 298 0 538 54 802 180 205 98 361 210 520 371 136 139 231 266 313 416 19
34 36 60 38 58 6 -6 -91 -186 -145 -270 -449 -696 -1262 -1060 -2066 -924
-867 147 -1534 813 -1688 1684 -19 109 -23 165 -23 345 0 229 11 320 59 512
148 581 553 1076 1097 1338 370 178 781 242 1188 184z m-584 -1545 c43 -16 92
-82 241 -326 84 -136 158 -256 165 -266 12 -16 31 10 187 263 183 297 211 330
286 344 51 10 112 -10 157 -53 40 -37 40 -37 177 -509 l138 -472 -172 0 -173
0 -56 228 c-77 308 -76 303 -85 297 -5 -3 -71 -105 -146 -227 -149 -241 -173
-273 -222 -294 -68 -29 -171 -7 -219 47 -12 13 -86 127 -164 252 -78 126 -146
225 -150 220 -4 -4 -36 -124 -70 -265 l-63 -258 -174 0 c-154 0 -174 2 -169
15 3 9 62 210 131 448 69 238 135 451 146 475 42 83 141 117 235 81z m3334
-169 c0 -93 4 -170 8 -170 5 0 116 77 247 170 l238 170 236 0 c130 0 231 -4
226 -9 -6 -4 -167 -119 -358 -255 -191 -136 -345 -251 -343 -255 3 -5 166
-118 362 -252 l356 -244 -236 -3 -235 -2 -245 170 c-134 93 -247 170 -250 170
-3 0 -6 -76 -6 -170 l0 -170 -155 0 -155 0 0 510 0 510 155 0 155 0 0 -170z
m-1159 -1127 c-12 -20 -14 -14 -5 12 4 9 9 14 11 11 3 -2 0 -13 -6 -23z
m-5672 -1889 c34 -15 61 -31 61 -35 0 -13 -6 -11 -50 11 -52 27 -60 25 -60
-11 0 -17 -4 -28 -10 -24 -10 6 -15 85 -6 85 3 0 32 -12 65 -26z m61 -94 c0
-5 -22 -10 -49 -10 -30 0 -51 -5 -54 -12 -4 -10 -8 -9 -16 2 -19 26 -12 30 54
30 37 0 65 -4 65 -10z m-8 -74 c11 -25 6 -56 -10 -56 -4 0 -8 12 -7 27 0 36
-22 40 -37 6 -7 -15 -13 -29 -14 -31 -1 -1 -13 2 -28 7 -19 8 -26 18 -26 36 0
14 5 25 10 25 6 0 10 -9 10 -19 0 -27 19 -36 27 -14 17 49 56 59 75 19z m8
-96 c0 -5 -22 -10 -49 -10 -30 0 -51 -5 -54 -12 -4 -10 -8 -9 -16 2 -19 26
-12 30 54 30 37 0 65 -4 65 -10z m-30 -60 c0 -5 8 -11 18 -11 16 -1 16 -2 0
-6 -12 -3 -18 -14 -18 -34 0 -36 -14 -37 -63 -4 -48 33 -47 45 3 45 22 0 40 5
40 10 0 6 5 10 10 10 6 0 10 -4 10 -10z m0 -110 c0 -5 8 -11 18 -11 16 -1 16
-2 0 -6 -12 -3 -18 -14 -18 -34 0 -36 -14 -37 -63 -4 -48 33 -47 45 3 45 22 0
40 5 40 10 0 6 5 10 10 10 6 0 10 -4 10 -10z m22 -124 c11 -25 6 -56 -10 -56
-4 0 -8 12 -7 27 0 32 -24 43 -32 14 -6 -24 -23 -28 -23 -6 0 8 -7 15 -15 15
-10 0 -15 -10 -15 -27 0 -20 -3 -24 -11 -16 -7 7 -9 23 -5 38 6 22 11 26 32
22 13 -2 27 0 30 4 11 18 45 8 56 -15z m-22 -86 c0 -5 8 -11 18 -11 16 -1 16
-2 0 -6 -12 -3 -18 -14 -18 -34 0 -36 -14 -37 -63 -4 -48 33 -47 45 3 45 22 0
40 5 40 10 0 6 5 10 10 10 6 0 10 -4 10 -10z m0 -110 c0 -5 8 -11 18 -11 16
-1 16 -2 0 -6 -12 -3 -18 -14 -18 -34 0 -36 -14 -37 -63 -4 -48 33 -47 45 3
45 22 0 40 5 40 10 0 6 5 10 10 10 6 0 10 -4 10 -10z m-47 -131 c-3 -10 -1
-19 5 -19 16 0 24 18 11 22 -8 3 -7 7 2 15 11 8 19 5 34 -10 17 -17 17 -19 3
-14 -12 4 -18 1 -18 -8 0 -8 8 -15 18 -16 14 0 14 -2 -3 -8 -11 -5 -25 -4 -32
1 -7 5 -16 7 -20 5 -5 -3 -17 1 -28 9 -19 14 -19 14 1 15 17 0 17 1 2 12 -15
10 -15 12 0 23 20 15 32 1 25 -27z m75 -136 c-26 -2 -71 -2 -100 0 -29 2 -8 3
47 3 55 0 79 -1 53 -3z m-17 -111 c-26 -18 -27 -32 -1 -32 11 0 20 -4 20 -10
0 -6 -32 -10 -75 -10 -43 0 -75 4 -75 10 0 6 20 10 45 10 49 0 56 8 25 28 -11
7 -20 17 -20 23 0 7 11 4 26 -6 25 -16 27 -16 48 4 14 14 22 17 25 9 2 -6 -6
-18 -18 -26z m-59 -94 c2 -17 10 -23 28 -23 18 0 26 6 28 23 4 27 22 30 22 3
0 -38 -45 -63 -77 -43 -16 10 -28 62 -15 62 6 0 12 -10 14 -22z m62 -84 c9 -8
16 -22 16 -29 0 -20 -28 -45 -50 -45 -22 0 -50 25 -50 45 0 20 28 45 50 45 10
0 26 -7 34 -16z m-64 -94 c0 -5 14 -10 30 -10 17 0 30 5 30 12 0 9 3 9 11 1
18 -18 1 -33 -36 -33 -18 0 -35 -5 -37 -12 -3 -8 -12 -5 -28 10 -19 18 -21 22
-7 22 9 0 17 5 17 10 0 6 5 10 10 10 6 0 10 -4 10 -10z m72 -84 c11 -25 6 -56
-10 -56 -4 0 -8 12 -7 27 0 37 -21 40 -40 4 -25 -49 -75 -33 -75 23 0 24 18
19 22 -6 5 -33 25 -33 43 1 19 38 51 41 67 7z m-34 -159 c4 -30 22 -27 22 4 0
10 5 19 10 19 13 0 13 -26 0 -51 -13 -23 -53 -25 -74 -3 -19 19 -20 36 -4 52
20 20 43 9 46 -21z m31 -98 c26 -46 10 -59 -69 -59 -40 0 -70 4 -70 10 0 6 11
10 25 10 18 0 25 5 25 19 0 27 28 53 53 49 12 -2 28 -15 36 -29z m-5 -95 c19
-18 20 -28 6 -55 -19 -35 -90 -15 -90 26 0 20 28 45 50 45 10 0 26 -7 34 -16z
m13 -120 c3 -8 1 -26 -5 -40 -17 -35 -58 -33 -80 6 -11 19 -25 30 -39 30 -13
0 -23 5 -23 10 0 6 30 10 70 10 55 0 72 -4 77 -16z m-2 -93 c-3 -6 -13 -11
-21 -11 -23 0 -18 -57 6 -63 11 -3 20 -10 20 -15 0 -6 -29 -1 -67 12 -38 13
-68 29 -68 36 0 7 29 23 65 35 67 23 77 24 65 6z"/>
<path d="M190 1952 c0 -5 11 -14 25 -20 22 -10 25 -9 25 8 0 15 -7 20 -25 20
-14 0 -25 -4 -25 -8z"/>
<path d="M195 1840 c3 -5 15 -15 26 -20 16 -9 19 -7 19 10 0 15 -7 20 -26 20
-14 0 -22 -4 -19 -10z"/>
<path d="M190 1632 c0 -5 11 -14 25 -20 22 -10 25 -9 25 8 0 15 -7 20 -25 20
-14 0 -25 -4 -25 -8z"/>
<path d="M195 1520 c3 -5 15 -15 26 -20 16 -9 19 -7 19 10 0 15 -7 20 -26 20
-14 0 -22 -4 -19 -10z"/>
<path d="M214 975 c-4 -9 -2 -21 4 -27 16 -16 47 -5 47 17 0 26 -42 34 -51 10z"/>
<path d="M210 656 c0 -8 5 -18 10 -21 6 -3 10 3 10 14 0 12 -4 21 -10 21 -5 0
-10 -6 -10 -14z"/>
<path d="M214 555 c-4 -9 -2 -21 4 -27 16 -16 47 -5 47 17 0 26 -42 34 -51 10z"/>
<path d="M214 445 c-4 -9 -2 -21 4 -27 16 -16 47 -5 47 17 0 26 -42 34 -51 10z"/>
<path d="M212 323 c2 -12 12 -18 28 -18 16 0 26 6 28 18 3 13 -3 17 -28 17
-25 0 -31 -4 -28 -17z"/>
<path d="M203 222 c-29 -4 -29 -18 -1 -25 25 -7 31 -4 26 15 -2 7 -13 12 -25
10z"/>
</g>
</svg>
