<?xml version="1.0" encoding="UTF-8"?>
<svg xmlns="http://www.w3.org/2000/svg" xmlns:xlink="http://www.w3.org/1999/xlink" width="150px" height="150px" viewBox="0 0 150 150" version="1.1">
<g id="surface1">
<path style=" stroke:none;fill-rule:evenodd;fill:rgb(1.568627%,1.568627%,1.568627%);fill-opacity:1;" d="M 47.824219 24.355469 C 46.457031 25.285156 44.738281 27.222656 44.003906 28.664062 C 42.710938 31.195312 42.667969 32.574219 42.667969 71.96875 L 42.667969 112.65625 L 48.324219 122.160156 L 53.984375 131.667969 L 53.992188 110.671875 L 54 89.679688 L 66.171875 101.839844 L 78.347656 114 L 90.332031 102 C 96.925781 95.398438 102.554688 90 102.84375 90 C 103.132812 90 103.289062 99.300781 103.183594 110.667969 C 103.082031 122.035156 103.0625 131.335938 103.136719 131.335938 C 103.210938 131.332031 105.835938 127.050781 108.96875 121.8125 L 114.667969 112.292969 L 114.667969 66.796875 L 102.667969 55.296875 C 96.066406 48.972656 90.667969 43.472656 90.667969 43.074219 C 90.667969 42.675781 95.089844 37.921875 100.492188 32.507812 L 110.316406 22.667969 L 90.304688 22.667969 L 84.667969 28.332031 C 81.566406 31.449219 78.796875 34 78.515625 34 C 78.230469 34 78 31.449219 78 28.332031 L 78 22.667969 L 64.15625 22.667969 C 50.433594 22.667969 50.285156 22.683594 47.824219 24.355469 M 56.71875 35.726562 L 54.667969 37.453125 L 54.667969 70 L 66 70 L 66 54.054688 C 66 45.285156 65.8125 37.625 65.585938 37.03125 C 65.09375 35.742188 61.929688 34 60.085938 34 C 59.359375 34 57.847656 34.777344 56.71875 35.726562 M 78.691406 51.957031 C 78.3125 52.664062 78 57.015625 78 61.621094 L 78 70 L 99.648438 70 L 90 60.332031 C 84.691406 55.015625 80.132812 50.667969 79.867188 50.667969 C 79.597656 50.667969 79.070312 51.246094 78.691406 51.957031 M 64.667969 82.511719 C 64.667969 82.792969 67.742188 86.085938 71.5 89.828125 L 78.332031 96.632812 L 85.5 89.542969 C 89.441406 85.648438 92.667969 82.355469 92.667969 82.230469 C 92.667969 82.101562 86.367188 82 78.667969 82 C 70.964844 82 64.667969 82.230469 64.667969 82.511719 "/>
<path style=" stroke:none;fill-rule:evenodd;fill:rgb(98.431373%,98.431373%,98.431373%);fill-opacity:1;" d="M 0 75.003906 L 0 150.007812 L 75.167969 149.835938 L 150.332031 149.667969 L 150.503906 74.832031 L 150.671875 0 L 0 0 L 0 75.003906 M 0.320312 75.332031 C 0.320312 116.582031 0.402344 133.457031 0.5 112.832031 C 0.597656 92.207031 0.597656 58.457031 0.5 37.832031 C 0.402344 17.207031 0.320312 34.082031 0.320312 75.332031 M 47.824219 24.355469 C 46.457031 25.285156 44.738281 27.222656 44.003906 28.664062 C 42.710938 31.195312 42.667969 32.574219 42.667969 71.96875 L 42.667969 112.65625 L 48.324219 122.160156 L 53.984375 131.667969 L 53.992188 110.671875 L 54 89.679688 L 66.171875 101.839844 L 78.347656 114 L 90.332031 102 C 96.925781 95.398438 102.554688 90 102.84375 90 C 103.132812 90 103.289062 99.300781 103.183594 110.667969 C 103.082031 122.035156 103.0625 131.335938 103.136719 131.335938 C 103.210938 131.332031 105.835938 127.050781 108.96875 121.8125 L 114.667969 112.292969 L 114.667969 66.796875 L 102.667969 55.296875 C 96.066406 48.972656 90.667969 43.472656 90.667969 43.074219 C 90.667969 42.675781 95.089844 37.921875 100.492188 32.507812 L 110.316406 22.667969 L 90.304688 22.667969 L 84.667969 28.332031 C 81.566406 31.449219 78.796875 34 78.515625 34 C 78.230469 34 78 31.449219 78 28.332031 L 78 22.667969 L 64.15625 22.667969 C 50.433594 22.667969 50.285156 22.683594 47.824219 24.355469 M 56.71875 35.726562 L 54.667969 37.453125 L 54.667969 70 L 66 70 L 66 54.054688 C 66 45.285156 65.8125 37.625 65.585938 37.03125 C 65.09375 35.742188 61.929688 34 60.085938 34 C 59.359375 34 57.847656 34.777344 56.71875 35.726562 M 78.691406 51.957031 C 78.3125 52.664062 78 57.015625 78 61.621094 L 78 70 L 99.648438 70 L 90 60.332031 C 84.691406 55.015625 80.132812 50.667969 79.867188 50.667969 C 79.597656 50.667969 79.070312 51.246094 78.691406 51.957031 M 64.667969 82.511719 C 64.667969 82.792969 67.742188 86.085938 71.5 89.828125 L 78.332031 96.632812 L 85.5 89.542969 C 89.441406 85.648438 92.667969 82.355469 92.667969 82.230469 C 92.667969 82.101562 86.367188 82 78.667969 82 C 70.964844 82 64.667969 82.230469 64.667969 82.511719 "/>
</g>
</svg>
