<?xml version="1.0" standalone="no"?>
<!DOCTYPE svg PUBLIC "-//W3C//DTD SVG 20010904//EN"
 "http://www.w3.org/TR/2001/REC-SVG-20010904/DTD/svg10.dtd">
<svg version="1.0" xmlns="http://www.w3.org/2000/svg"
 width="338.000000pt" height="149.000000pt" viewBox="0 0 338.000000 149.000000"
 preserveAspectRatio="xMidYMid meet">

<g transform="translate(0.000000,149.000000) scale(0.100000,-0.100000)"
fill="#000000" stroke="none">
<path d="M160 750 l0 -570 135 0 135 0 2 335 3 335 150 -330 c133 -291 165
-355 165 -321 0 13 270 635 281 645 5 6 9 -121 9 -327 l0 -337 140 0 140 0 0
458 0 458 -82 113 -82 112 -84 -3 -83 -3 -122 -272 c-67 -150 -124 -273 -127
-273 -3 0 -61 124 -129 275 l-124 275 -163 0 -164 0 0 -570z"/>
<path d="M1355 1308 c-3 -7 -4 -263 -3 -568 l3 -555 143 -3 142 -3 0 211 0
210 53 -1 52 0 158 -210 158 -209 104 0 104 0 3 85 3 84 68 -84 67 -85 70 0
70 0 0 191 0 191 28 39 c15 21 29 38 32 38 3 0 74 -103 159 -229 l153 -230
169 0 c93 0 169 3 169 6 0 3 -90 136 -200 294 -110 159 -203 295 -206 303 -3
10 68 110 194 274 l199 258 -156 3 c-85 1 -160 0 -167 -2 -6 -2 -92 -116 -190
-253 l-179 -248 -5 147 -5 147 -73 105 -72 106 -65 0 -65 0 -2 -477 -3 -478
-117 147 c-65 82 -118 150 -118 151 0 2 22 18 49 34 56 35 123 115 143 170 7
22 13 80 13 138 0 116 -16 156 -86 219 -90 82 -162 95 -532 96 -197 0 -259 -3
-262 -12z m532 -222 c42 -26 58 -59 58 -121 -2 -111 -59 -155 -207 -158 l-93
-2 -3 154 -3 153 108 -4 c83 -3 115 -8 140 -22z"/>
</g>
</svg>
